<svg xmlns="http://www.w3.org/2000/svg" viewBox="0 0 586.5 230.09"><defs><style>.cls-1{fill:#fff;}</style></defs><g id="Ebene_2" data-name="Ebene 2"><g id="Ebene_1-2" data-name="Ebene 1"><path class="cls-1" d="M584.3,91.63c-31.28,59.32-35.67,167.44-65,39.66a4.44,4.44,0,0,0-8.18-1.19c-8.46,14.72-16.59,39.33-29.32,19.87a4.53,4.53,0,0,1-.66-1.7c-6.06-35-32.08,41.49-78.2,11.9-3.16-2-8.57-9.72-6.81,4.24,1.6,12.75,9,29.77-4.14,33.7a4.54,4.54,0,0,1-1.21.18c-11.32.31-12-.47-12.58-12,0-.09,0-.19,0-.29-3.25-27.19,3.48-66.55-3.25-90.15a4.42,4.42,0,0,0-7.32-1.93c-24,23.41,11.61,92-15.33,118.6a4.62,4.62,0,0,1-1.14.81c-17,8.58-11.1-12.31-12.25-24.78-.06-.7-.14-1.81-.19-2.51-.63-9.6,1.12-35.53,4-54.62,4.74-31.23-5.6-35-8.83-.89-1.11,11.8-2.68,23.56-1.93,35.2a4.32,4.32,0,0,1-1.12,3.28c-22.85,24.12-36.26-94.93-52.25-24.7a4.6,4.6,0,0,1-.52,1.33c-11.24,19.23-17.48-1.65-24.66-15.43a4.43,4.43,0,0,0-8.32,1.55c-4.06,34.29-21.54,70.16-49.34,22.76a3.07,3.07,0,0,0-.28-.42c-3.93-5.12-6.69-11.31-10.56-16.42a4.44,4.44,0,0,0-7.93,2.9c.35,9.66,1.07,20.93-7.88,15.32a3.88,3.88,0,0,1-.94-.82C141.06,123.64,108.61,71.73,128,148a4.72,4.72,0,0,1,0,2.21c-3.91,16.71-13.28-11.62-17.26,1.59,0,.11-.07.22-.11.33-20.06,51.11-97.93,131.14-76.84,27.75a30.06,30.06,0,0,1,9-16.06C73,135.86,30.42,238.6,81.25,179.3c.14-.16.26-.33.38-.49,65.61-98.27-76-16.37-80.95-64.43C-7.6,55.55,62.34-26.74,65.26,67.79a4.46,4.46,0,0,1-7.82,3.06c-6.75-7.78-7-27.47-20.21-15.47a4.26,4.26,0,0,0-.42.43C4.8,92.35,23.88,95.23,61.92,100.7l.44,0c27.3.86,50.25,30.31,44.27-8.88a4.4,4.4,0,0,1,.59-3c15.58-24.93,55,55.41,58.83,31,3.25-14.83-12.37-52.51,6.39-55.94a4.18,4.18,0,0,1,3.29.74c5.5,4.22,3.11,16.81,2.54,25.49a4.43,4.43,0,0,0,7.95,3c16.41-21.43,54.4-60.81,60.61-18.26a3.13,3.13,0,0,0,.12.53c1.63,5.65-2,15.63,4,18.57a4.54,4.54,0,0,0,1,.31c10.53,2,10.22,13.87,12.36,23.92a4.45,4.45,0,0,0,8.3,1.16c24.94-47.26,21.53-25.65,39.14,11.4a4.43,4.43,0,0,0,8.42-1.47c2.83-30.1,9-85.71,16.56-48.69a3.21,3.21,0,0,0,5.92,1c13.09-22.3,2.73-92.29,38.13-80.12a4.12,4.12,0,0,1,1.44.82c7,6.24,8.77,35.15-2.17,23.5a5.48,5.48,0,0,1-.55-.72C364.89,1.89,359.85,60.68,361,71.83c1.95,6.52,17.13-3,16.58-8.86-1.52-9.75,4.15-36,13.64-18.2a4.39,4.39,0,0,1,.5,1.77c.92,13.55-1.62,27.55.72,40.84a1.42,1.42,0,0,0,2.64.47c5.13-9.35,12.63-18.22,23.43-14a4.2,4.2,0,0,1,1.13.68c10.64,8.51,24.91,9.94,37.07,16.76a4.47,4.47,0,0,0,5.48-.94c25.69-28.52,22.36,7.75,27.42,32.42a4.43,4.43,0,0,0,8.2,1.3c6-10.77,10.86-31.27,23.8-35.06a4.41,4.41,0,0,1,4.38,1c13.33,13.14,5.35,92.38,21.42,55.23,5.29-12.39,29.1-97.8,38.3-68A18.81,18.81,0,0,1,584.3,91.63Zm-163.82-.7a4.46,4.46,0,0,0-4.78,2.31c-12.3,23.76-2.15,78.23,32,53.53C482.34,124.07,444.89,95.52,420.48,90.93ZM220.7,80.41c-28.06,15.83-43.39,51.45-9.65,76.55a4.46,4.46,0,0,0,2.57.87c23,.31,18.37-51.32,13.59-74.44A4.44,4.44,0,0,0,220.7,80.41Z"/></g></g></svg>